<?xml version="1.0" encoding="utf-8"?>
<!-- Svg Vector Icons : http://www.onlinewebfonts.com/icon -->
<!DOCTYPE svg PUBLIC "-//W3C//DTD SVG 1.1//EN" "http://www.w3.org/Graphics/SVG/1.1/DTD/svg11.dtd">
<svg version="1.1" xmlns="http://www.w3.org/2000/svg" xmlns:xlink="http://www.w3.org/1999/xlink" x="0px" y="0px" viewBox="0 0 256 256" enable-background="new 0 0 256 256" xml:space="preserve">
<metadata> Svg Vector Icons : http://www.onlinewebfonts.com/icon </metadata>
<g><g><path fill="#FFFFFF" d="M10,128c0,65,52.5,118,118,118c64.5,0,118-53,118-118S192.5,10,128,10C62.5,10,10,63,10,128L10,128L10,128z M223.9,128c0,53-43.3,95.9-95.9,95.9c-53.5,0-95.9-42.9-95.9-95.9S74.5,32.1,128,32.1C180.5,32.1,223.9,75,223.9,128L223.9,128z M117.4,58.4l-59,59c-5.5,5.5-5.5,15.7,0,21.2c6,5.1,14.7,6,20.7,0l34.1-34.1V187c0,8.3,6,14.7,14.8,14.8c7.8,0,14.8-6.5,14.8-14.8v-82.5l33.6,34.1c6,5.1,14.7,6,20.7,0c2.8-2.8,4.6-6.9,4.6-10.6c0-3.7-1.9-7.8-4.6-10.6l-59-59C132.1,52.4,123.4,53.3,117.4,58.4L117.4,58.4z"/></g></g>
</svg>
