<?xml version="1.0" encoding="utf-8"?>
<!-- Svg Vector Icons : http://www.onlinewebfonts.com/icon -->
<!DOCTYPE svg PUBLIC "-//W3C//DTD SVG 1.1//EN" "http://www.w3.org/Graphics/SVG/1.1/DTD/svg11.dtd">
<svg version="1.1" xmlns="http://www.w3.org/2000/svg" xmlns:xlink="http://www.w3.org/1999/xlink" x="0px" y="0px" viewBox="0 0 256 256" enable-background="new 0 0 256 256" xml:space="preserve">
<metadata> Svg Vector Icons : http://www.onlinewebfonts.com/icon </metadata>
<g><g><g><path fill="#000000" d="M120.8,10.7C104.5,14.2,92.6,26.9,90,43.6c-0.6,3.8-0.9,23.7-0.7,49.5c0.3,42.3,0.4,43.2,2.6,48.8c6.3,15.6,19.7,24.6,36.6,24.6c14,0,24.7-5.6,32.1-16.7c6.9-10.3,6.8-9.4,6.8-61.3c0-52,0.1-51-6.8-61.3C152.2,14.6,135.6,7.7,120.8,10.7z"/><path fill="#000000" d="M54.7,118.2c0,9.3,1.8,23.9,3.5,30.2c7.5,25.7,30.3,46.7,56.2,51.5l6.2,1.1v15.2v15.1H99H77.3v7.4v7.4h51.2h51.2v-7.4v-7.4H158h-21.7v-15.2v-15.2l6.7-1.2c16.5-3.2,33.3-13.8,43.4-27.6c10.8-14.6,14.9-27.6,14.9-47.5v-12.6h-7.3h-7.2l-0.6,13.5c-0.4,9.5-1.2,15.5-2.6,19.7c-5.8,17.8-20.1,32.1-38.5,38.3c-7.6,2.6-25.9,2.6-33.5,0c-18.7-6.3-33.5-21.2-38.9-39c-1-3.3-1.9-10.6-2.2-19l-0.6-13.5h-7.7h-7.8L54.7,118.2L54.7,118.2z"/></g></g></g>
</svg>